<svg xmlns="http://www.w3.org/2000/svg" width="1280" height="700" viewBox="0 0 1280 700"><rect width="1280" height="700" fill="white"/><g font-family="Arial,sans-serif" fill="#162333"><text x="110" y="48" font-size="27" font-weight="700">Irregularidad del espaciado en el ensayo MQTT</text><path d="M110 560.0H1230" stroke="#e1e7ee"/><text x="95" y="565.0" text-anchor="end" font-size="16">0.0</text><path d="M110 468.0H1230" stroke="#e1e7ee"/><text x="95" y="473.0" text-anchor="end" font-size="16">0.4</text><path d="M110 376.0H1230" stroke="#e1e7ee"/><text x="95" y="381.0" text-anchor="end" font-size="16">0.7</text><path d="M110 284.0H1230" stroke="#e1e7ee"/><text x="95" y="289.0" text-anchor="end" font-size="16">1.1</text><path d="M110 192.00000000000006H1230" stroke="#e1e7ee"/><text x="95" y="197.00000000000006" text-anchor="end" font-size="16">1.4</text><path d="M110 100.0H1230" stroke="#e1e7ee"/><text x="95" y="105.0" text-anchor="end" font-size="16">1.8</text><text x="110.0" y="589" text-anchor="middle" font-size="16">0</text><text x="296.6666666666667" y="589" text-anchor="middle" font-size="16">30</text><text x="483.33333333333337" y="589" text-anchor="middle" font-size="16">60</text><text x="670.0" y="589" text-anchor="middle" font-size="16">90</text><text x="856.6666666666667" y="589" text-anchor="middle" font-size="16">121</text><text x="1043.3333333333335" y="589" text-anchor="middle" font-size="16">151</text><text x="1230.0" y="589" text-anchor="middle" font-size="16">181</text><path d="M295.7384898710866 100V560" stroke="#a7aeb8" stroke-dasharray="5 6"/><text x="302.7384898710866" y="90" font-size="14">Nieve</text><path d="M481.4769797421731 100V560" stroke="#a7aeb8" stroke-dasharray="5 6"/><text x="488.4769797421731" y="90" font-size="14">Nominal</text><path d="M667.1123388581951 100V560" stroke="#a7aeb8" stroke-dasharray="5 6"/><text x="674.1123388581951" y="90" font-size="14">Corte</text><path d="M852.6445672191528 100V560" stroke="#a7aeb8" stroke-dasharray="5 6"/><text x="859.6445672191528" y="90" font-size="14">Nominal</text><path d="M1038.3830570902394 100V560" stroke="#a7aeb8" stroke-dasharray="5 6"/><text x="1045.3830570902394" y="90" font-size="14">+2 vehículos</text><polyline points="110.10,560.00 113.20,548.93 116.29,553.49 119.38,550.53 122.48,539.25 125.57,527.93 128.67,534.79 131.76,529.17 134.85,524.42 137.95,551.76 141.04,532.26 144.14,544.95 147.23,526.37 150.32,536.66 153.42,533.51 156.51,529.11 159.61,528.14 162.70,521.67 165.79,525.96 168.89,515.98 171.98,531.73 175.08,515.97 178.17,529.83 181.26,509.16 184.36,529.02 187.45,515.50 190.55,525.88 193.64,520.44 196.73,531.04 199.83,525.50 202.92,524.58 206.01,534.56 209.11,510.82 212.20,533.18 215.30,513.19 218.39,530.49 221.48,502.92 224.58,526.08 227.67,503.90 230.77,522.14 233.86,510.06 236.95,515.08 240.05,532.66 243.14,520.82 246.24,521.26 249.33,528.32 252.42,526.79 255.52,520.08 258.61,522.29 261.71,528.69 264.80,526.20 267.89,518.44 270.99,512.88 274.08,521.23 277.17,529.63 280.27,521.23 283.36,535.75 286.46,523.17 289.55,535.76 292.64,543.14 295.74,532.84 298.83,538.75 301.93,526.65 305.02,538.19 308.11,541.54 311.21,534.39 314.30,524.41 317.40,524.13 320.49,534.39 323.58,528.19 326.68,524.13 329.77,533.91 332.87,525.78 335.96,519.37 339.05,533.19 342.15,523.34 345.24,517.58 348.34,523.78 351.43,531.59 354.52,522.97 357.62,525.12 360.71,537.03 363.80,525.87 366.90,524.21 369.99,533.65 373.09,523.66 376.18,527.24 379.27,528.34 382.37,528.56 385.46,530.31 388.56,530.16 391.65,528.53 394.74,527.24 397.84,535.88 400.93,533.62 404.03,529.85 407.12,523.10 410.21,517.73 413.31,529.35 416.40,520.70 419.50,520.10 422.59,532.14 425.68,522.21 428.78,527.03 431.87,537.66 434.97,520.19 438.06,526.59 441.15,541.49 444.25,521.82 447.34,531.08 450.43,539.96 453.53,528.50 456.62,534.14 459.72,536.41 462.81,527.96 465.90,531.99 469.00,534.81 472.09,527.58 475.19,536.11 478.28,531.58 481.37,526.71 484.47,544.58 487.56,523.80 490.66,529.17 493.75,518.91 496.84,531.03 499.94,518.94 503.03,529.85 506.13,517.50 509.22,524.39 512.31,526.95 515.41,530.73 518.50,521.82 521.59,527.99 524.69,521.23 527.78,529.86 530.88,525.12 533.97,535.51 537.06,535.77 540.16,530.33 543.25,538.49 546.35,531.39 549.44,541.35 552.53,533.01 555.63,523.55 558.72,533.50 561.82,525.78 564.91,542.05 568.00,525.24 571.10,538.23 574.19,518.12 577.29,532.93 580.38,521.10 583.47,533.38 586.57,522.81 589.66,533.87 592.76,509.87 595.85,512.76 598.94,502.49 602.04,510.45 605.13,508.48 608.22,503.22 611.32,524.39 614.41,507.64 617.51,524.79 620.60,502.62 623.69,533.22 626.79,528.10 629.88,517.72 632.98,538.10 636.07,513.45 639.16,533.19 642.26,512.64 645.35,545.16 648.45,527.22 651.54,537.69 654.63,528.43 657.73,514.62 660.82,511.20 663.92,496.04 667.01,518.93 670.10,508.36 673.20,509.61 676.29,506.70 679.38,513.92 682.48,508.82 685.57,491.22 688.67,475.89 691.76,444.12 694.85,429.06 697.95,390.25 701.04,373.23 704.14,354.37 707.23,347.95 710.32,325.15 713.42,319.14 716.51,290.68 719.61,282.39 722.70,251.42 725.79,236.33 728.89,202.41 731.98,193.49 735.08,180.35 738.17,150.64 741.26,141.93 744.36,121.07 747.45,121.07 750.55,121.07 753.64,121.07 756.73,121.07 759.83,121.07 762.92,121.07 766.01,121.07 769.11,121.07 772.20,121.07 775.30,121.07 778.39,121.07 781.48,121.07 784.58,121.07 787.67,121.07 790.77,121.07 793.86,121.07 796.95,121.07 800.05,121.07 803.14,121.07 806.24,121.07 809.33,121.07 812.42,121.07 815.52,121.07 818.61,121.07 821.71,121.07 824.80,121.07 827.89,121.07 830.99,121.07 834.08,121.07 837.17,121.07 840.27,121.07 843.36,121.07 846.46,121.07 849.55,121.07 852.64,121.07 855.74,121.07 858.83,142.89 861.93,164.42 865.02,169.85 868.11,172.73 871.21,165.14 874.30,175.00 877.40,165.76 880.49,179.22 883.58,163.38 886.68,148.03 889.77,154.28 892.87,162.86 895.96,147.73 899.05,164.53 902.15,156.06 905.24,153.20 908.34,162.71 911.43,185.31 914.52,163.64 917.62,151.00 920.71,161.54 923.80,172.49 926.90,185.54 929.99,163.48 933.09,161.38 936.18,164.60 939.27,166.03 942.37,181.66 945.46,163.43 948.56,166.76 951.65,164.58 954.74,175.93 957.84,181.70 960.93,163.39 964.03,164.71 967.12,163.38 970.21,177.26 973.31,164.31 976.40,189.98 979.50,177.01 982.59,176.79 985.68,190.27 988.78,165.83 991.87,180.37 994.97,166.15 998.06,189.10 1001.15,169.27 1004.25,197.26 1007.34,174.19 1010.43,197.21 1013.53,176.96 1016.62,193.87 1019.72,172.12 1022.81,179.55 1025.90,170.31 1029.00,181.59 1032.09,181.81 1035.19,176.90 1038.28,192.98 1041.37,340.52 1044.47,358.63 1047.56,337.84 1050.66,364.19 1053.75,344.78 1056.84,364.98 1059.94,348.58 1063.03,369.68 1066.13,348.87 1069.22,371.18 1072.31,363.83 1075.41,351.23 1078.50,360.57 1081.59,346.33 1084.69,354.98 1087.78,347.77 1090.88,361.82 1093.97,354.22 1097.06,370.37 1100.16,370.39 1103.25,382.96 1106.35,367.29 1109.44,394.12 1112.53,367.82 1115.63,384.76 1118.72,383.03 1121.82,368.42 1124.91,383.06 1128.00,368.26 1131.10,388.21 1134.19,371.55 1137.29,376.37 1140.38,374.62 1143.47,374.10 1146.57,376.30 1149.66,377.42 1152.76,389.31 1155.85,370.80 1158.94,390.62 1162.04,371.26 1165.13,382.25 1168.22,374.65 1171.32,377.96 1174.41,375.18 1177.51,371.75 1180.60,384.58 1183.69,371.59 1186.79,389.11 1189.88,370.44 1192.98,387.24 1196.07,371.81 1199.16,394.20 1202.26,389.35 1205.35,402.45 1208.45,390.76 1211.54,399.23 1214.63,390.97 1217.73,360.18 1220.82,380.35 1223.92,363.25 1227.01,377.15" fill="none" stroke="#1764b0" stroke-width="2.4"/><path d="M110 653h25" stroke="#1764b0" stroke-width="4"/><text x="145" y="659" font-size="16">Flota simulada</text><text x="670" y="620" text-anchor="middle" font-size="18">Tiempo simulado (min)</text><text x="28" y="320" transform="rotate(-90 28 320)" text-anchor="middle" font-size="18">Coeficiente de variación</text></g></svg>